{"title":"Our Idiot Brother 2011 BRRiP XviD AC3 - MiSTERE","uid":6806735,"size":1511693109,"categoryP":"video","categoryS":"movies","magnet":"?xt=urn:btih:3811f8b1cc8038baa342614ee1734ed6e7f51f3b&amp;dn=Our+Idiot+Brother+2011+BRRiP+XviD+AC3+-+MiSTERE&amp;tr=udp%3A%2F%2Ftracker.openbittorrent.com%3A80&amp;tr=udp%3A%2F%2Fopen.demonii.com%3A1337&amp;tr=udp%3A%2F%2Ftracker.coppersurfer.tk%3A6969&amp;tr=udp%3A%2F%2Fexodus.desync.com%3A6969","seeders":0,"leechers":0,"uploader":"sceneline","files":103,"time":1320889748,"description":"- &lt;a href=&quot;\nhttp://www.Speed.Cd&quot; rel=&quot;nofollow&quot; target=&quot;_NEW&quot;&gt;\nhttp://www.Speed.Cd&lt;/a&gt;      fast  and The Hottest Private Tracker on the net\n\n   signup is open now\n\nPlease Seed back to make the speed Faster!!!\n\n------------------nfo--------------------------\n-Our Idiot Brother 2011 BRRiP XviD AC3 - MiSTERE\n &lt;a href=&quot;\nhttp://www.imdb.com/title/tt1637706/&quot; rel=&quot;nofollow&quot; target=&quot;_NEW&quot;&gt;\nhttp://www.imdb.com/title/tt1637706/&lt;/a&gt;\n\nSource: Our.Idiot.Brother.720p.BluRay.x264-REFiNED\n\nVideo\nID                               : 0\nFormat                           : MPEG-4 Visual\nFormat profile                   : Advanced Simple@L5\nFormat settings, BVOP            : 2\nFormat settings, QPel            : No\nFormat settings, GMC             : No warppoints\nFormat settings, Matrix          : Default (H.263)\nMuxing mode                      : Packed bitstream\nCodec ID                         : XVID\nCodec ID/Hint                    : XviD\nDuration                         : 1h 29mn\nBit rate                         : 1 937 Kbps\nWidth                            : 720 pixels\nHeight                           : 400 pixels\nDisplay aspect ratio             : 16:9\nFrame rate                       : 23.976 fps\nColor space                      : YUV\nChroma subsampling               : 4:2:0\nBit depth                        : 8 bits\nScan type                        : Progressive\nCompression mode                 : Lossy\nBits/(Pixel*Frame)               : 0.281\nStream size                      : 1.22 GiB (88%)\nWriting library                  : XviD 64\n\nAudio\nID                               : 1\nFormat                           : AC-3\nFormat/Info                      : Audio Coding 3\nMode extension                   : CM (complete main)\nCodec ID                         : 2000\nDuration                         : 1h 29mn\nBit rate mode                    : Constant\nBit rate                         : 256 Kbps\nChannel(s)                       : 6 channels\nChannel positions                : Front: L C R, Side: L R, LFE\nSampling rate                    : 48.0 KHz\nBit depth                        : 16 bits\nCompression mode                 : Lossy\nStream size                      : 165 MiB (12%)\nAlignment                        : Aligned on interleaves\nInterleave, duration             : 42 ms (1.00 video frame)\n\n\n\n \nResized Sharpened and tweaked RGB\n\n\n[IMG]http://i.imgur.com/IRLiU.png[/IMG]\n[IMG]http://i.imgur.com/DPfCq.png[/IMG]\n[IMG]http://i.imgur.com/QgyxC.png[/IMG]\n[IMG]http://i.imgur.com/QngcB.png[/IMG]\n[IMG]http://i.imgur.com/4KjU0.png[/IMG]","torrent":{"xt":"urn:btih:3811f8b1cc8038baa342614ee1734ed6e7f51f3b","amp;dn":"Our+Idiot+Brother+2011+BRRiP+XviD+AC3+-+MiSTERE","amp;tr":["udp%3A%2F%2Ftracker.openbittorrent.com%3A80","udp%3A%2F%2Fopen.demonii.com%3A1337","udp%3A%2F%2Ftracker.coppersurfer.tk%3A6969","udp%3A%2F%2Fexodus.desync.com%3A6969"],"infoHash":"3811f8b1cc8038baa342614ee1734ed6e7f51f3b","infoHashBuffer":{"type":"Buffer","data":[56,17,248,177,204,128,56,186,163,66,97,78,225,115,78,214,231,245,31,59]},"announce":[],"urlList":[]}}